<svg xmlns="http://www.w3.org/2000/svg" style="display: none;"><symbol id="depressed" viewBox="0 0 512 512"><title>depressed</title><path style="fill:#334F55;" d="M467.862,384V238.345c0-90.052-73.284-163.31-163.362-163.31h-97 c-90.078,0-163.362,73.259-163.362,163.31V384H0v17.655h52.966h17.655h35.754c2.22,19.805,18.88,35.31,39.28,35.31 s37.06-15.505,39.28-35.31h142.129c2.22,19.805,18.88,35.31,39.28,35.31c20.4,0,37.06-15.505,39.28-35.31h35.755h17.655H512V384 H467.862z"/><path style="fill:#77C9C9;" d="M441.379,384h-35.31v-52.966h-17.655V384v13.263c0,12.155-9.897,22.047-22.069,22.047 c-12.172,0-22.069-9.892-22.069-22.047V384v-52.966h-17.655V384H185.379v-52.966h-17.655V384v13.263 c0,12.155-9.897,22.047-22.069,22.047s-22.069-9.892-22.069-22.047V384v-52.966h-17.655V384h-35.31h-8.828V238.345 c0-80.315,65.362-145.655,145.707-145.655h97c80.345,0,145.707,65.34,145.707,145.655V384H441.379z"/><g> <path style="fill:#334F55;" d="M185.379,251.586c0,14.603-11.879,26.483-26.483,26.483h-8.828v17.655h8.828 c24.336,0,44.138-19.802,44.138-44.138v-8.828h-17.655V251.586z"/> <path style="fill:#334F55;" d="M326.621,251.586v-8.828h-17.655v8.828c0,24.336,19.802,44.138,44.138,44.138h8.828v-17.655h-8.828 C338.5,278.069,326.621,266.19,326.621,251.586z"/> </g></symbol><symbol id="satisfied" viewBox="0 0 512 512"><title>satisfied</title><path style="fill:#334F55;" d="M467.862,401.655V256c0-90.052-73.28-163.31-163.358-163.31h-97.009 c-90.078,0-163.358,73.259-163.358,163.31v145.655H0v17.655h52.966h70.621h44.138h26.483h247.172h17.655H512v-17.655H467.862z"/><path style="fill:#63CB6B;" d="M441.379,401.655H194.207h-26.483h-44.138H61.793V256c0-80.315,65.362-145.655,145.703-145.655 h97.009c80.341,0,145.703,65.34,145.703,145.655v145.655H441.379z"/><g> <path style="fill:#334F55;" d="M317.793,242.759c19.47,0,35.31-15.84,35.31-35.31v-8.828h-17.655v8.828 c0,9.737-7.918,17.655-17.655,17.655c-9.737,0-17.655-7.918-17.655-17.655v-8.828h-17.655v8.828 C282.483,226.918,298.323,242.759,317.793,242.759z"/> <path style="fill:#334F55;" d="M185.379,242.759c19.47,0,35.31-15.84,35.31-35.31v-8.828h-17.655v8.828 c0,9.737-7.918,17.655-17.655,17.655c-9.737,0-17.655-7.918-17.655-17.655v-8.828h-17.655v8.828 C150.069,226.918,165.909,242.759,185.379,242.759z"/> <path style="fill:#334F55;" d="M397.241,260.414H114.759c-4.875,0-8.828,3.953-8.828,8.828v30.897 c0,21.905,17.823,39.724,39.733,39.724h220.672c21.909,0,39.733-17.819,39.733-39.724v-30.897 C406.069,264.366,402.116,260.414,397.241,260.414z"/> </g><g> <rect x="220.69" y="278.069" style="fill:#D8D8D8;" width="26.483" height="44.138"/> <rect x="176.552" y="278.069" style="fill:#D8D8D8;" width="26.483" height="44.138"/> <rect x="264.828" y="278.069" style="fill:#D8D8D8;" width="26.483" height="44.138"/> <rect x="308.966" y="278.069" style="fill:#D8D8D8;" width="26.483" height="44.138"/> <path style="fill:#D8D8D8;" d="M123.586,300.138v-22.069h35.31v44.138h-13.233C133.491,322.207,123.586,312.306,123.586,300.138z"/> <path style="fill:#D8D8D8;" d="M388.414,300.138c0,12.168-9.905,22.069-22.078,22.069h-13.233v-44.138h35.31V300.138z"/> </g><path style="fill:#334F55;" d="M291.31,348.69H220.69c-4.875,0-8.828,3.953-8.828,8.828s3.953,8.828,8.828,8.828h70.621 c4.875,0,8.828-3.953,8.828-8.828S296.185,348.69,291.31,348.69z"/></symbol><symbol id="night" viewBox="0 0 480 480"><title>night</title><path d="M459.777,347.328c-4.288-5.248-11.52-7.232-17.824-4.96c-17.76,6.368-37.024,9.632-57.312,9.632 c-97.024,0-176-78.976-176-176c0-58.4,28.832-112.768,77.12-145.472c5.472-3.712,8.096-10.4,6.624-16.832 S285.601,2.4,279.073,1.44C271.585,0.352,264.129,0,256.641,0c-132.352,0-240,107.648-240,240s107.648,240,240,240 c84,0,160.416-42.688,204.352-114.208C464.545,360,464.065,352.608,459.777,347.328z M256.641,448c-114.688,0-208-93.312-208-208 c0-106.816,80.96-195.104,184.704-206.688c-36.032,38.112-56.704,88.96-56.704,142.688c0,114.688,93.312,208,208,208 c7.936,0,15.744-0.448,23.392-1.248C369.249,424.192,315.073,448,256.641,448z"/></symbol><symbol id="sleep" viewBox="0 0 93.651 93.651"><title>sleep</title><path d="M62.093,73.15c-6.914,6.679-15.97,10.31-25.404,10.31c-1.603,0-3.217-0.105-4.833-0.318 C11.831,80.508-2.318,62.073,0.315,42.047C2.95,22.022,21.38,7.871,41.411,10.506c0.515,0.068,1.024,0.152,1.531,0.24 c0.718,0.125,1.305,0.643,1.519,1.34c0.214,0.697,0.018,1.455-0.506,1.961c-4.536,4.381-7.628,9.811-9.071,15.851h-3.974 c1.243-5.848,3.853-11.21,7.684-15.774c-0.664-0.04-1.325-0.06-1.983-0.06c-16.179,0-30.289,12.023-32.455,28.488 C1.8,60.461,14.453,76.947,32.362,79.303c8.714,1.144,17.36-1.211,24.233-6.511c-6.034-1.719-11.336-4.895-15.584-9.072h5.921 c4.03,3.045,8.826,5.203,14.148,6.13c0.718,0.125,1.305,0.643,1.519,1.34C62.813,71.886,62.618,72.643,62.093,73.15z M71.026,57.598 c0-1.069-0.867-1.937-1.937-1.937h-9.212l10.453-10.555c0.549-0.555,0.712-1.387,0.411-2.108c-0.301-0.721-1.006-1.191-1.787-1.191 h-13.72c-1.069,0-1.937,0.867-1.937,1.937c0,1.07,0.867,1.937,1.937,1.937h9.077L53.858,56.236 c-0.549,0.556-0.712,1.387-0.411,2.108c0.301,0.721,1.006,1.191,1.787,1.191h13.855C70.158,59.535,71.026,58.668,71.026,57.598z M93.651,57.598c0-1.069-0.867-1.937-1.937-1.937h-9.211l10.453-10.555c0.55-0.555,0.712-1.387,0.411-2.108 c-0.301-0.721-1.006-1.191-1.787-1.191H77.86c-1.069,0-1.937,0.867-1.937,1.937c0,1.07,0.867,1.937,1.937,1.937h9.076L76.484,56.236 c-0.549,0.556-0.712,1.387-0.411,2.108c0.301,0.721,1.006,1.191,1.787,1.191h13.854C92.784,59.535,93.651,58.668,93.651,57.598z M48.798,57.598c0-1.069-0.867-1.937-1.937-1.937H29.77l18.257-18.436c0.55-0.555,0.712-1.387,0.411-2.108 c-0.301-0.721-1.006-1.191-1.787-1.191H25.127c-1.07,0-1.937,0.867-1.937,1.936c0,1.07,0.867,1.937,1.937,1.937h16.881 L23.751,56.236c-0.55,0.556-0.712,1.387-0.411,2.108c0.301,0.721,1.006,1.191,1.787,1.191h21.735 C47.931,59.535,48.798,58.668,48.798,57.598z"/></symbol><symbol id="sunny-day-weather-stroke-symbol" viewBox="0 0 365.4 365.4"><title>sunny-day-weather-stroke-symbol</title><path d="M57.4,181.8c0-5.699-3.8-9.6-9.6-9.6H9.6c-5.7,0-9.6,5.7-9.6,9.6c0,5.7,3.8,9.601,9.6,9.601h38.2 C53.6,191.3,57.4,187.5,57.4,181.8z"/><path d="M283.101,93.8L309.9,67c3.8-3.8,3.8-9.6,0-13.4c-3.8-3.8-9.601-3.8-13.4,0l-26.8,26.8c-3.8,3.8-3.8,9.6,0,13.4 C273.601,97.6,281.2,97.6,283.101,93.8z"/><path d="M80.4,269.7l-26.8,26.8c-3.8,3.8-3.8,9.601,0,13.4c3.8,3.8,9.6,3.8,13.4,0l26.8-26.8c3.8-3.801,3.8-9.601,0-13.4 C90,267.8,84.2,265.9,80.4,269.7z"/><path d="M181.8,57.4c5.7,0,9.601-3.8,9.601-9.6V9.6c0-5.7-3.8-9.6-9.601-9.6c-3.8,0-9.6,3.8-9.6,9.6v38.2 C172.2,53.6,177.9,57.4,181.8,57.4z"/><path d="M80.4,93.8c3.8,3.8,9.6,3.8,13.4,0c3.8-3.8,3.8-9.6,0-13.4L67,53.6c-3.8-3.8-9.6-3.8-13.4,0c-3.8,3.8-3.8,9.6,0,13.4 L80.4,93.8z"/><path d="M355.8,172.2h-38.199c-5.7,0-9.601,3.8-9.601,9.6c0,5.801,3.8,9.601,9.601,9.601H355.8c5.7,0,9.601-3.8,9.601-9.601 C365.4,177.9,359.601,172.2,355.8,172.2z"/><path d="M181.8,308c-5.699,0-9.6,3.8-9.6,9.601V355.8c0,5.7,3.8,9.601,9.6,9.601c5.801,0,9.601-3.8,9.601-9.601v-38.199 C191.3,311.8,187.5,308,181.8,308z"/><path d="M283.101,269.7c-3.801-3.8-9.601-3.8-13.4,0s-3.8,9.6,0,13.4l26.8,26.8c3.8,3.8,9.601,3.8,13.4,0s3.8-9.601,0-13.4 L283.101,269.7z"/><path d="M181.8,76.6c-57.399,0-105.2,47.8-105.2,105.2c0,57.4,47.8,105.2,105.2,105.2c57.4,0,105.2-47.8,105.2-105.2 C287,124.4,241.101,76.6,181.8,76.6z M181.8,267.8c-47.8,0-86.1-38.199-86.1-86.1c0-47.9,38.2-86.1,86.1-86.1 c47.9,0,86.101,38.2,86.101,86.1C267.9,229.601,229.601,267.8,181.8,267.8z"/></symbol><symbol id="weather" viewBox="0 0 363.4 363.4"><title>weather</title><path d="M181.8,133.9c5.7,0,9.601-3.8,9.601-9.6V86.1c0-5.7-3.8-9.6-9.601-9.6c-5.8,0-9.6,3.8-9.6,9.6v38.2 C172.2,130,176,133.9,181.8,133.9z"/><path d="M283.101,170.2l26.8-26.8c3.8-3.8,3.8-9.6,0-13.4c-3.8-3.8-9.601-3.8-13.4,0l-26.8,26.8c-3.8,3.8-3.8,9.6,0,13.4 C273.601,174,279.3,174,283.101,170.2z"/><path d="M101.4,229.5c11.5-32.5,44-57.4,80.3-57.4s68.9,24.9,80.3,57.4h19.2c-13.4-44-53.5-76.5-101.4-76.5 c-47.899,0-88,32.5-101.399,76.5H101.4z"/><path d="M80.4,170.2c3.8,3.8,9.6,3.8,13.4,0c3.8-3.8,3.8-9.6,0-13.4L67,130c-3.8-3.8-9.6-3.8-13.4,0c-3.8,3.8-3.8,9.6,0,13.4 L80.4,170.2z"/><path d="M353.9,267.699H9.6c-5.7,0-9.6,3.801-9.6,9.602c0,5.799,3.8,9.6,9.6,9.6h344.2c5.7,0,9.601-3.801,9.601-9.6 C363.4,271.5,359.601,267.699,353.9,267.699z"/></symbol></svg>